<?xml version="1.0" encoding="UTF-8" standalone="no"?>
<svg
   id="Layer_1"
   viewBox="0 0 837.82 259.43"
   version="1.1"
   sodipodi:docname="logo-variation-sot-operations.svg"
   inkscape:version="1.3.2 (091e20e, 2023-11-25, custom)"
   xmlns:inkscape="http://www.inkscape.org/namespaces/inkscape"
   xmlns:sodipodi="http://sodipodi.sourceforge.net/DTD/sodipodi-0.dtd"
   xmlns="http://www.w3.org/2000/svg"
   xmlns:svg="http://www.w3.org/2000/svg">
  <sodipodi:namedview
     id="namedview30"
     pagecolor="#ffffff"
     bordercolor="#000000"
     borderopacity="0.25"
     inkscape:showpageshadow="2"
     inkscape:pageopacity="0.0"
     inkscape:pagecheckerboard="0"
     inkscape:deskcolor="#d1d1d1"
     inkscape:zoom="2.3143396"
     inkscape:cx="419.12604"
     inkscape:cy="129.84266"
     inkscape:window-width="2560"
     inkscape:window-height="1369"
     inkscape:window-x="-8"
     inkscape:window-y="-8"
     inkscape:window-maximized="1"
     inkscape:current-layer="Layer_1" />
  <defs
     id="defs12">
    <style
       id="style1">.cls-1{fill:url(#linear-gradient);}.cls-2{fill:#222;}.cls-3{fill:#3ce5b9;}</style>
    <linearGradient
       id="linear-gradient"
       x1="-42.76"
       y1="100.03"
       x2="246.87"
       y2="148.7"
       gradientTransform="matrix(1, 0, 0, 1, 0, 0)"
       gradientUnits="userSpaceOnUse">
      <stop
         offset="0"
         stop-color="#3ce5b9"
         id="stop1"
         style="stop-color:#68e5b9;stop-opacity:1;" />
      <stop
         offset=".06"
         stop-color="#3ce5b9"
         id="stop2" />
      <stop
         offset=".41"
         stop-color="#3ce5b9"
         id="stop3" />
      <stop
         offset=".59"
         stop-color="#3be2b7"
         id="stop4" />
      <stop
         offset=".67"
         stop-color="#3adbb1"
         id="stop5" />
      <stop
         offset=".74"
         stop-color="#38cea7"
         id="stop6" />
      <stop
         offset=".8"
         stop-color="#35bb9a"
         id="stop7" />
      <stop
         offset=".85"
         stop-color="#32a387"
         id="stop8" />
      <stop
         offset=".89"
         stop-color="#2d8571"
         id="stop9" />
      <stop
         offset=".94"
         stop-color="#286257"
         id="stop10" />
      <stop
         offset=".98"
         stop-color="#223a39"
         id="stop11" />
      <stop
         offset="1"
         stop-color="#1e1f25"
         id="stop12" />
    </linearGradient>
  </defs>
  <g
     id="g28"
     transform="translate(0,-48)">
    <path
       class="cls-2"
       d="m 510.63,74.56 -10.47,2.16 c -0.77,-4.85 -5,-8 -10.16,-8 -5.16,0 -8.39,2.92 -8.39,6.39 0,2.62 1.15,4.46 5.16,5.23 l 11.08,2.23 c 8.39,1.77 13.55,6.77 13.55,14.78 0,10 -8.24,16.24 -20.47,16.24 -10.78,0 -20.24,-5 -21.55,-15.32 l 11.01,-2.23 c 1.38,5.85 5.7,8.39 11.54,8.39 5.84,0 9.16,-2.85 9.16,-6.54 0,-2.92 -1.38,-4.69 -6,-5.62 L 484.16,90.19 C 478,88.88 470.61,85.5 470.61,75.41 c 0,-9.24 7.54,-15.7 19.63,-15.7 10.47,0 18.39,5.7 20.4,14.85 z"
       id="path12" />
    <path
       class="cls-2"
       d="m 535.57,125.51 h -11.31 l 6.16,-14.32 -15.93,-37.25 h 11.31 l 10.16,24.55 10.62,-24.55 h 11.31 z"
       id="path13" />
    <path
       class="cls-2"
       d="m 601.68,89.03 v 23.4 H 591.52 V 91.19 c 0,-5.39 -3.08,-9 -7.77,-9 -5.77,0 -9.54,3.85 -9.54,13.24 v 17.01 H 564.05 V 74.03 h 10.16 v 3.46 c 3,-3 7,-4.62 12.08,-4.62 9.24,0 15.39,6.62 15.39,16.16 z"
       id="path14" />
    <path
       class="cls-2"
       d="m 650.02,93.26 c 0,12.08 -9.47,20.17 -20.7,20.17 -11.23,0 -20.93,-8.08 -20.93,-20.17 0,-12.09 9.47,-20.17 20.93,-20.17 11.46,0 20.7,8.08 20.7,20.17 z m -9.85,0 c 0,-7.16 -5.54,-11.47 -10.85,-11.47 -5.31,0 -11.08,4.31 -11.08,11.47 0,7.16 5.54,11.47 11.08,11.47 5.54,0 10.85,-4.31 10.85,-11.47 z"
       id="path15" />
    <path
       class="cls-2"
       d="m 699.43,93.26 c 0,12.08 -9.08,20.32 -18.86,20.32 -5.23,0 -9.47,-1.54 -12.7,-4.16 v 16.09 H 657.71 V 74.02 h 10.16 v 3.08 c 3.23,-2.69 7.47,-4.23 12.7,-4.23 9.77,0 18.86,8.31 18.86,20.4 z m -9.85,0 c 0,-7.08 -4.62,-11.54 -10.78,-11.54 -5.46,0 -10.93,4.46 -10.93,11.54 0,7.08 5.46,11.47 10.93,11.47 6.16,0 10.78,-4.39 10.78,-11.47 z"
       id="path16" />
    <path
       class="cls-2"
       d="m 735.07,110.73 c -4,2.16 -6.77,2.85 -10.01,2.85 -9.08,0 -15.08,-4.77 -15.08,-15.32 V 82.33 h -8.24 v -8.31 h 8.24 V 62.4 h 10.16 v 11.62 h 12.55 v 8.31 h -12.55 v 15.16 c 0,4.62 2.23,6.62 5.62,6.62 1.77,0 4.39,-0.77 6.39,-1.85 z"
       id="path17" />
    <path
       class="cls-2"
       d="m 752.31,62.55 c 0,3.39 -2.62,5.93 -6.16,5.93 -3.54,0 -6.16,-2.54 -6.16,-5.93 0,-3.39 2.54,-6.08 6.16,-6.08 3.62,0 6.16,2.85 6.16,6.08 z m -11.24,49.87 V 74.01 h 10.16 v 38.41 z"
       id="path18" />
    <path
       class="cls-2"
       d="m 789.87,96.8 9.39,2.39 c -2.15,8.77 -10.08,14.39 -19.24,14.39 -11.24,0 -20.55,-8.24 -20.55,-20.32 0,-12.08 9.31,-20.4 20.55,-20.4 8.93,0 16.7,5.54 19.24,14.16 l -9.77,2.77 c -1.38,-5.39 -5,-7.62 -9.47,-7.62 -6.39,0 -10.7,4.54 -10.7,11.08 0,6.54 4.31,11.01 10.7,11.01 4.46,0 8.08,-2.16 9.85,-7.47 z"
       id="path19" />
    <path
       class="cls-2"
       d="m 813.96,100.19 c 0.54,3.92 3.92,5.23 7.93,5.23 3.77,0 6,-1.69 6,-3.85 0,-1.38 -0.92,-2.77 -4.23,-3.46 l -7.85,-1.62 c -6.93,-1.46 -10.85,-5.39 -10.85,-10.93 0,-7.39 6,-12.7 15.7,-12.7 9.08,0 15.39,4.7 16.7,11.39 l -9.7,1.92 c -0.38,-3.08 -3.08,-5.31 -7.31,-5.31 -4.23,0 -5.23,2 -5.23,3.77 0,1.23 0.46,2.54 3.46,3.23 l 9.16,2 c 6.77,1.46 10.08,5.7 10.08,10.85 0,8.47 -6.85,12.85 -16.86,12.85 -8.47,0 -16.24,-3.31 -17.24,-11.31 l 10.24,-2.08 z"
       id="path20" />
    <path
       class="cls-2"
       d="m 509.86,175.62 c 0,12.08 -9.47,20.17 -20.7,20.17 -11.23,0 -20.93,-8.08 -20.93,-20.17 0,-12.09 9.47,-20.17 20.93,-20.17 11.46,0 20.7,8.08 20.7,20.17 z m -9.85,0 c 0,-7.16 -5.54,-11.47 -10.85,-11.47 -5.31,0 -11.08,4.31 -11.08,11.47 0,7.16 5.54,11.47 11.08,11.47 5.54,0 10.85,-4.31 10.85,-11.47 z"
       id="path21" />
    <path
       class="cls-2"
       d="m 540.57,156.38 v 8.31 h -11.62 v 30.09 h -10.16 v -30.09 h -5.85 v -8.31 h 5.85 v -3.46 c 0,-9 6.16,-14.55 15.16,-14.55 2.46,0 4.7,0.46 6.85,1.46 l -2.31,8.24 c -1.39,-0.46 -2.77,-0.69 -3.85,-0.69 -3.31,0 -5.7,1.92 -5.7,5.54 v 3.46 h 11.62 z"
       id="path22" />
    <path
       class="cls-2"
       d="m 587.67,152.69 v 42.1 H 577.2 v -42.1 h -17.16 v -9.47 h 44.79 v 9.47 z"
       id="path23" />
    <path
       class="cls-2"
       d="m 649.4,171.39 v 23.4 h -10.16 v -21.24 c 0,-5.39 -3.08,-9 -7.77,-9 -5.77,0 -9.54,3.85 -9.54,13.24 v 17.01 h -10.16 v -55.42 h 10.16 v 20.47 c 3,-3 7,-4.62 12.08,-4.62 9.24,0 15.39,6.62 15.39,16.16 z"
       id="path24" />
    <path
       class="cls-2"
       d="m 671.03,144.91 c 0,3.39 -2.62,5.93 -6.16,5.93 -3.54,0 -6.16,-2.54 -6.16,-5.93 0,-3.39 2.54,-6.08 6.16,-6.08 3.62,0 6.16,2.85 6.16,6.08 z m -11.24,49.87 v -38.41 h 10.16 v 38.41 z"
       id="path25" />
    <path
       class="cls-2"
       d="m 718.9,171.39 v 23.4 h -10.16 v -21.24 c 0,-5.39 -3.08,-9 -7.77,-9 -5.77,0 -9.54,3.85 -9.54,13.24 v 17.01 h -10.16 v -38.41 h 10.16 v 3.46 c 3,-3 7,-4.62 12.08,-4.62 9.24,0 15.39,6.62 15.39,16.16 z"
       id="path26" />
    <path
       class="cls-2"
       d="m 766.16,191.09 c 0,11.78 -8.16,18.32 -20.55,18.32 -8.93,0 -15.39,-3.16 -18.7,-8.47 l 8.24,-6.23 c 3,3.77 5.46,5.54 10.47,5.54 6.46,0 10.7,-4 10.7,-10.7 v -0.62 c -2.85,2.31 -6.77,3.54 -12.08,3.54 -9.62,0 -18.63,-8.16 -18.63,-18.7 0,-10.54 9,-18.55 18.63,-18.55 5.31,0 9.24,1.31 12.08,3.54 v -2.39 h 9.77 l 0.08,34.71 z m -9.85,-17.32 c 0,-6 -4.93,-10 -10.31,-10 -6.08,0 -10.62,4 -10.62,10 0,6 4.54,10.01 10.62,10.01 5.39,0 10.31,-4 10.31,-10.01 z"
       id="path27" />
    <path
       class="cls-2"
       d="m 783.94,182.55 c 0.54,3.92 3.92,5.23 7.93,5.23 3.77,0 6,-1.69 6,-3.85 0,-1.38 -0.92,-2.77 -4.23,-3.46 l -7.85,-1.62 c -6.93,-1.46 -10.85,-5.39 -10.85,-10.93 0,-7.39 6,-12.7 15.7,-12.7 9.08,0 15.39,4.7 16.7,11.39 l -9.7,1.92 c -0.38,-3.08 -3.08,-5.31 -7.31,-5.31 -4.23,0 -5.23,2 -5.23,3.77 0,1.23 0.46,2.54 3.46,3.23 l 9.16,2 c 6.77,1.46 10.08,5.7 10.08,10.85 0,8.47 -6.85,12.85 -16.86,12.85 -8.47,0 -16.24,-3.31 -17.24,-11.31 l 10.24,-2.08 z"
       id="path28" />
  </g>
  <g
     id="g30">
    <circle
       class="cls-3"
       cx="278.12"
       cy="129.71"
       r="34.59"
       id="circle28"
       style="fill:#e6ab48;fill-opacity:1" />
    <path
       class="cls-2"
       d="M270.44,.02C215.12,.02,167.93,34.8,149.51,83.69h131.04c25.03,.26,45.43,20.51,46,44.94,.59,25.22-20.14,46.82-46,47.1h-30.33v83.69c5.41,0,12.96,.08,22.17-.18,10.07-.28,18.06-.89,20.09-1.07,15.95-1.44,40.25-10.89,57.56-23.72,30.19-22.38,49.58-63.88,49.58-105.24C399.62,57.86,341.79,.02,270.44,.02Z"
       id="path29" />
    <path
       class="cls-1"
       d="M200.11,175.73H119.07c-25.85-.29-46.58-21.88-46-47.1,.57-24.43,20.96-44.68,46-44.94h30.33V.02c-5.36,0-12.96-.1-22.17,.16-10.07,.28-18.06,.89-20.09,1.07-15.95,1.44-40.25,10.89-57.56,23.72C19.39,47.35,0,88.85,0,130.21c0,71.35,57.84,129.18,129.18,129.18,55.32,0,102.52-34.78,120.93-83.66h-50Z"
       id="path30" />
  </g>
  <text
     xml:space="preserve"
     style="font-size:64px;font-family:System-ui;-inkscape-font-specification:System-ui;fill:#e6ab48;fill-opacity:1;stroke-width:1.00157"
     x="468.92746"
     y="215.29137"
     id="text30"><tspan
       sodipodi:role="line"
       id="tspan30"
       x="468.92746"
       y="215.29137"
       style="font-size:64px">Operations</tspan></text>
</svg>
