<?xml version="1.0" encoding="UTF-8"?><svg id="Layer_1" xmlns="http://www.w3.org/2000/svg" xmlns:xlink="http://www.w3.org/1999/xlink" viewBox="0 0 837.82 259.43"><defs><style>.cls-1{fill:url(#linear-gradient);}.cls-2{fill:#222;}.cls-3{fill:#3ce5b9;}</style><linearGradient id="linear-gradient" x1="-42.76" y1="100.03" x2="246.87" y2="148.7" gradientTransform="matrix(1, 0, 0, 1, 0, 0)" gradientUnits="userSpaceOnUse"><stop offset="0" stop-color="#3ce5b9"/><stop offset=".06" stop-color="#3ce5b9"/><stop offset=".41" stop-color="#3ce5b9"/><stop offset=".59" stop-color="#3be2b7"/><stop offset=".67" stop-color="#3adbb1"/><stop offset=".74" stop-color="#38cea7"/><stop offset=".8" stop-color="#35bb9a"/><stop offset=".85" stop-color="#32a387"/><stop offset=".89" stop-color="#2d8571"/><stop offset=".94" stop-color="#286257"/><stop offset=".98" stop-color="#223a39"/><stop offset="1" stop-color="#1e1f25"/></linearGradient></defs><g><path class="cls-2" d="M510.63,74.56l-10.47,2.16c-.77-4.85-5-8-10.16-8s-8.39,2.92-8.39,6.39c0,2.62,1.15,4.46,5.16,5.23l11.08,2.23c8.39,1.77,13.55,6.77,13.55,14.78,0,10-8.24,16.24-20.47,16.24-10.78,0-20.24-5-21.55-15.32l11.01-2.23c1.38,5.85,5.7,8.39,11.54,8.39s9.16-2.85,9.16-6.54c0-2.92-1.38-4.69-6-5.62l-10.93-2.08c-6.16-1.31-13.55-4.69-13.55-14.78,0-9.24,7.54-15.7,19.63-15.7,10.47,0,18.39,5.7,20.4,14.85Z"/><path class="cls-2" d="M535.57,125.51h-11.31l6.16-14.32-15.93-37.25h11.31l10.16,24.55,10.62-24.55h11.31l-22.32,51.57Z"/><path class="cls-2" d="M601.68,89.03v23.4h-10.16v-21.24c0-5.39-3.08-9-7.77-9-5.77,0-9.54,3.85-9.54,13.24v17.01h-10.16v-38.41h10.16v3.46c3-3,7-4.62,12.08-4.62,9.24,0,15.39,6.62,15.39,16.16Z"/><path class="cls-2" d="M650.02,93.26c0,12.08-9.47,20.17-20.7,20.17s-20.93-8.08-20.93-20.17,9.47-20.17,20.93-20.17,20.7,8.08,20.7,20.17Zm-9.85,0c0-7.16-5.54-11.47-10.85-11.47s-11.08,4.31-11.08,11.47,5.54,11.47,11.08,11.47,10.85-4.31,10.85-11.47Z"/><path class="cls-2" d="M699.43,93.26c0,12.08-9.08,20.32-18.86,20.32-5.23,0-9.47-1.54-12.7-4.16v16.09h-10.16v-51.49h10.16v3.08c3.23-2.69,7.47-4.23,12.7-4.23,9.77,0,18.86,8.31,18.86,20.4Zm-9.85,0c0-7.08-4.62-11.54-10.78-11.54-5.46,0-10.93,4.46-10.93,11.54s5.46,11.47,10.93,11.47c6.16,0,10.78-4.39,10.78-11.47Z"/><path class="cls-2" d="M735.07,110.73c-4,2.16-6.77,2.85-10.01,2.85-9.08,0-15.08-4.77-15.08-15.32v-15.93h-8.24v-8.31h8.24v-11.62h10.16v11.62h12.55v8.31h-12.55v15.16c0,4.62,2.23,6.62,5.62,6.62,1.77,0,4.39-.77,6.39-1.85l2.92,8.47Z"/><path class="cls-2" d="M752.31,62.55c0,3.39-2.62,5.93-6.16,5.93s-6.16-2.54-6.16-5.93,2.54-6.08,6.16-6.08,6.16,2.85,6.16,6.08Zm-11.24,49.87v-38.41h10.16v38.41h-10.16Z"/><path class="cls-2" d="M789.87,96.8l9.39,2.39c-2.15,8.77-10.08,14.39-19.24,14.39-11.24,0-20.55-8.24-20.55-20.32s9.31-20.4,20.55-20.4c8.93,0,16.7,5.54,19.24,14.16l-9.77,2.77c-1.38-5.39-5-7.62-9.47-7.62-6.39,0-10.7,4.54-10.7,11.08s4.31,11.01,10.7,11.01c4.46,0,8.08-2.16,9.85-7.47Z"/><path class="cls-2" d="M813.96,100.19c.54,3.92,3.92,5.23,7.93,5.23,3.77,0,6-1.69,6-3.85,0-1.38-.92-2.77-4.23-3.46l-7.85-1.62c-6.93-1.46-10.85-5.39-10.85-10.93,0-7.39,6-12.7,15.7-12.7,9.08,0,15.39,4.7,16.7,11.39l-9.7,1.92c-.38-3.08-3.08-5.31-7.31-5.31s-5.23,2-5.23,3.77c0,1.23,.46,2.54,3.46,3.23l9.16,2c6.77,1.46,10.08,5.7,10.08,10.85,0,8.47-6.85,12.85-16.86,12.85-8.47,0-16.24-3.31-17.24-11.31l10.24-2.08Z"/><path class="cls-2" d="M509.86,175.62c0,12.08-9.47,20.17-20.7,20.17s-20.93-8.08-20.93-20.17,9.47-20.17,20.93-20.17,20.7,8.08,20.7,20.17Zm-9.85,0c0-7.16-5.54-11.47-10.85-11.47s-11.08,4.31-11.08,11.47,5.54,11.47,11.08,11.47,10.85-4.31,10.85-11.47Z"/><path class="cls-2" d="M540.57,156.38v8.31h-11.62v30.09h-10.16v-30.09h-5.85v-8.31h5.85v-3.46c0-9,6.16-14.55,15.16-14.55,2.46,0,4.7,.46,6.85,1.46l-2.31,8.24c-1.39-.46-2.77-.69-3.85-.69-3.31,0-5.7,1.92-5.7,5.54v3.46h11.62Z"/><path class="cls-2" d="M587.67,152.69v42.1h-10.47v-42.1h-17.16v-9.47h44.79v9.47h-17.16Z"/><path class="cls-2" d="M649.4,171.39v23.4h-10.16v-21.24c0-5.39-3.08-9-7.77-9-5.77,0-9.54,3.85-9.54,13.24v17.01h-10.16v-55.42h10.16v20.47c3-3,7-4.62,12.08-4.62,9.24,0,15.39,6.62,15.39,16.16Z"/><path class="cls-2" d="M671.03,144.91c0,3.39-2.62,5.93-6.16,5.93s-6.16-2.54-6.16-5.93,2.54-6.08,6.16-6.08,6.16,2.85,6.16,6.08Zm-11.24,49.87v-38.41h10.16v38.41h-10.16Z"/><path class="cls-2" d="M718.9,171.39v23.4h-10.16v-21.24c0-5.39-3.08-9-7.77-9-5.77,0-9.54,3.85-9.54,13.24v17.01h-10.16v-38.41h10.16v3.46c3-3,7-4.62,12.08-4.62,9.24,0,15.39,6.62,15.39,16.16Z"/><path class="cls-2" d="M766.16,191.09c0,11.78-8.16,18.32-20.55,18.32-8.93,0-15.39-3.16-18.7-8.47l8.24-6.23c3,3.77,5.46,5.54,10.47,5.54,6.46,0,10.7-4,10.7-10.7v-.62c-2.85,2.31-6.77,3.54-12.08,3.54-9.62,0-18.63-8.16-18.63-18.7s9-18.55,18.63-18.55c5.31,0,9.24,1.31,12.08,3.54v-2.39h9.77l.08,34.71Zm-9.85-17.32c0-6-4.93-10-10.31-10-6.08,0-10.62,4-10.62,10s4.54,10.01,10.62,10.01c5.39,0,10.31-4,10.31-10.01Z"/><path class="cls-2" d="M783.94,182.55c.54,3.92,3.92,5.23,7.93,5.23,3.77,0,6-1.69,6-3.85,0-1.38-.92-2.77-4.23-3.46l-7.85-1.62c-6.93-1.46-10.85-5.39-10.85-10.93,0-7.39,6-12.7,15.7-12.7,9.08,0,15.39,4.7,16.7,11.39l-9.7,1.92c-.38-3.08-3.08-5.31-7.31-5.31s-5.23,2-5.23,3.77c0,1.23,.46,2.54,3.46,3.23l9.16,2c6.77,1.46,10.08,5.7,10.08,10.85,0,8.47-6.85,12.85-16.86,12.85-8.47,0-16.24-3.31-17.24-11.31l10.24-2.08Z"/></g><g><circle class="cls-3" cx="278.12" cy="129.71" r="34.59"/><path class="cls-2" d="M270.44,.02C215.12,.02,167.93,34.8,149.51,83.69h131.04c25.03,.26,45.43,20.51,46,44.94,.59,25.22-20.14,46.82-46,47.1h-30.33v83.69c5.41,0,12.96,.08,22.17-.18,10.07-.28,18.06-.89,20.09-1.07,15.95-1.44,40.25-10.89,57.56-23.72,30.19-22.38,49.58-63.88,49.58-105.24C399.62,57.86,341.79,.02,270.44,.02Z"/><path class="cls-1" d="M200.11,175.73H119.07c-25.85-.29-46.58-21.88-46-47.1,.57-24.43,20.96-44.68,46-44.94h30.33V.02c-5.36,0-12.96-.1-22.17,.16-10.07,.28-18.06,.89-20.09,1.07-15.95,1.44-40.25,10.89-57.56,23.72C19.39,47.35,0,88.85,0,130.21c0,71.35,57.84,129.18,129.18,129.18,55.32,0,102.52-34.78,120.93-83.66h-50Z"/></g></svg>