<?xml version="1.0" encoding="UTF-8" standalone="no"?>
<svg
   viewBox="0 0 30 44.583333"
   version="1.1"
   id="svg4"
   sodipodi:docname="map-marker-solid.svg"
   width="30"
   height="44.583332"
   inkscape:version="1.2.2 (732a01da63, 2022-12-09)"
   xmlns:inkscape="http://www.inkscape.org/namespaces/inkscape"
   xmlns:sodipodi="http://sodipodi.sourceforge.net/DTD/sodipodi-0.dtd"
   xmlns="http://www.w3.org/2000/svg"
   xmlns:svg="http://www.w3.org/2000/svg">
  <defs
     id="defs8" />
  <sodipodi:namedview
     id="namedview6"
     pagecolor="#ffffff"
     bordercolor="#000000"
     borderopacity="0.25"
     inkscape:showpageshadow="2"
     inkscape:pageopacity="0.0"
     inkscape:pagecheckerboard="0"
     inkscape:deskcolor="#d1d1d1"
     showgrid="false"
     inkscape:zoom="12.8125"
     inkscape:cx="2.2634146"
     inkscape:cy="23.765854"
     inkscape:window-width="1920"
     inkscape:window-height="1009"
     inkscape:window-x="-8"
     inkscape:window-y="-8"
     inkscape:window-maximized="1"
     inkscape:current-layer="svg4" />
  <path
     d="M 15,0 C 6.7382817,0 0,6.7382817 0,15 c 0,2.34375 0.95052171,5.032552 2.2395833,7.96875 1.2890635,2.936198 2.9492185,6.054688 4.6354168,8.958333 3.3723969,5.813802 6.7708329,10.677084 6.7708329,10.677084 L 15,44.583333 16.354167,42.604167 c 0,0 3.398438,-4.863282 6.770833,-10.677084 1.686198,-2.903645 3.346355,-6.022135 4.635417,-8.958333 C 29.04948,20.032552 30,17.34375 30,15 30,6.7382817 23.261718,0 15,0 Z m 0,3.3333333 c 6.464843,0 11.666667,5.2018233 11.666667,11.6666667 0,1.334635 -0.71614,3.860677 -1.927084,6.614583 -1.210936,2.753907 -2.884115,5.807292 -4.53125,8.645835 C 17.591147,34.778646 15.963542,37.167969 15,38.593749 14.036458,37.167969 12.408855,34.778646 9.7916667,30.260418 8.1445317,27.421875 6.4713549,24.36849 5.2604166,21.614583 4.0494801,18.860677 3.3333333,16.334635 3.3333333,15 3.3333333,8.5351566 8.5351566,3.3333333 15,3.3333333 Z m 0,8.3333337 c -1.842448,0 -3.333333,1.490885 -3.333333,3.333333 0,1.842448 1.490885,3.333333 3.333333,3.333333 1.842448,0 3.333333,-1.490885 3.333333,-3.333333 0,-1.842448 -1.490885,-3.333333 -3.333333,-3.333333 z"
     id="path2"
     style="fill:#ffcc00;stroke-width:1.66667" />
  <path
     style="fill:#ffffff;stroke:#00ffff;stroke-width:0"
     d="M 13.975742,36.972332 C 10.842535,32.192896 7.231037,25.845271 5.5957744,22.243572 4.7439394,20.367388 4.1102156,18.637863 3.694113,17.053659 2.9569612,14.247141 3.6682957,10.869415 5.5561581,8.2118546 6.1579993,7.3646377 7.4040147,6.1275979 8.2733235,5.514262 9.6565268,4.5383508 11.378594,3.8349027 13.112195,3.5376295 14.39793,3.3171551 16.30763,3.3682172 17.521951,3.6555388 c 5.046149,1.1939734 8.573277,5.2267694 9.055913,10.3542172 0.09674,1.027728 0.06186,1.486888 -0.205293,2.70289 -0.756949,3.445368 -3.057831,8.275401 -7.431154,15.599549 -1.232985,2.06492 -3.623219,5.821933 -3.908253,6.143064 -0.02698,0.03039 -0.502816,-0.636924 -1.057422,-1.482927 z M 15.65764,18.301347 c 0.6266,-0.117954 1.226486,-0.44377 1.713211,-0.930496 1.639064,-1.639063 1.181859,-4.370031 -0.903476,-5.396638 -0.526022,-0.258961 -0.570036,-0.266896 -1.480368,-0.266896 -0.911531,0 -0.953295,0.0076 -1.467835,0.265741 -0.633686,0.317964 -1.266184,0.963822 -1.589934,1.62352 -0.206477,0.420732 -0.221921,0.517499 -0.221921,1.390429 0,0.910332 0.0079,0.954346 0.266896,1.480368 0.685453,1.392353 2.151581,2.122337 3.683427,1.833972 z"
     id="path7529" />
  <path
     style="fill:#ffffff;stroke:#00ffff;stroke-width:0"
     d="M 14.716033,38.102618 C 11.753501,33.647195 8.4803095,28.079865 6.5164763,24.156098 4.9486576,21.023572 3.9233719,18.31952 3.5127392,16.234146 3.3225593,15.268329 3.3857706,13.605826 3.6566655,12.44878 4.1784423,10.220169 5.1920119,8.3910651 6.7915385,6.7915385 8.5331934,5.0498836 10.643641,3.959212 13.077176,3.5431441 c 1.322966,-0.226191 3.216117,-0.178319 4.444775,0.1123947 5.047985,1.1944077 8.573101,5.2249044 9.055913,10.3542172 0.09709,1.03143 0.06205,1.486181 -0.209749,2.722761 -0.755184,3.43573 -3.050232,8.250269 -7.426698,15.579678 -1.234845,2.068035 -3.63099,5.83407 -3.907628,6.141642 -0.02663,0.02961 -0.169623,-0.128438 -0.317756,-0.351219 z m 1.089214,-19.84461 c 0.948875,-0.215816 1.802721,-0.906308 2.225297,-1.799561 0.792531,-1.675273 0.09201,-3.669392 -1.57781,-4.491442 -0.508963,-0.250562 -0.560473,-0.259688 -1.465727,-0.259688 -0.87871,0 -0.967933,0.0145 -1.406519,0.228541 -0.609034,0.297227 -1.348582,1.037301 -1.643462,1.64463 -0.21224,0.437128 -0.227449,0.530713 -0.228541,1.406253 -0.0011,0.901063 0.0088,0.958189 0.25184,1.45216 0.448201,0.910896 1.234534,1.554206 2.226176,1.821268 0.543041,0.146247 0.968746,0.145679 1.618746,-0.0022 z"
     id="path7531" />
</svg>
