<?xml version="1.0" encoding="UTF-8"?><svg id="Layer_1" xmlns="http://www.w3.org/2000/svg" viewBox="0 0 800 800"><path d="M2,573.01v225.27H227.27v-84.16h348.46c3.76,14.29,10.34,27.83,19.62,39.89,18.31,23.82,44.79,39.09,74.58,42.99,4.96,.66,9.92,.98,14.84,.98,24.62,0,48.44-8.05,68.29-23.3,23.82-18.31,39.09-44.8,43-74.58,3.9-29.8-4.03-59.31-22.34-83.15-18.3-23.81-44.79-39.08-74.58-42.99-26.83-3.52-52.74,2.79-74.09,16.13L210.53,175.56c6.33-9.9,11.06-20.94,14.06-32.74h348.14v84.17h225.27V1.72h-225.27V85.88H224.16C212.3,42.1,174.53,7.94,126.79,3.21,65.15-3.04,9.88,42.33,3.76,104.03h0c-6.12,61.72,39.12,116.91,100.83,123.03,3.75,.38,7.48,.56,11.17,.56,18.97,0,36.99-4.88,52.89-13.41l417.32,417.32c-4.38,7.97-7.84,16.55-10.2,25.64H227.27v-84.17H2ZM170.95,120.61c-3.02,30.46-30.21,52.9-60.74,49.78-30.46-3.01-52.8-30.27-49.78-60.75,2.84-28.61,27.05-50.05,55.23-50.05,1.82,0,3.66,.09,5.52,.28,30.46,3.01,52.8,30.26,49.78,60.74Zm458.72-61.95h111.38v111.39h-111.38V58.66Zm-.19,619.6c3.66-27.92,27.59-48.31,55.03-48.31,2.4,0,4.81,.16,7.25,.47,30.36,3.98,51.82,31.92,47.84,62.27-1.92,14.71-9.46,27.79-21.23,36.84-11.76,9.03-26.3,12.96-41.05,11.02-14.71-1.92-27.78-9.46-36.82-21.23-9.04-11.76-12.96-26.34-11.03-41.05ZM58.95,629.95h111.38v111.39H58.95v-111.39Z"/></svg>