<?xml version="1.0" encoding="UTF-8"?><svg id="Layer_1" xmlns="http://www.w3.org/2000/svg" viewBox="0 0 800 800"><defs><style>.cls-1{fill:none;}</style></defs><path d="M505.51,548.86h-231.72c-18.2,0-33-14.8-33-33v-231.72c0-18.2,14.8-33,33-33h231.72c18.2,0,33,14.8,33,33v231.72c0,18.2-14.8,33-33,33Zm-221.64-43.08h211.56v-211.56h-211.56v211.56Z"/><path class="cls-1" d="M112.56,173.96c30.25,0,54.86-24.6,54.86-54.84s-24.61-54.86-54.86-54.86-54.85,24.61-54.85,54.86,24.6,54.84,54.85,54.84Z"/><path d="M677.29,569.13c-52.54,0-96.61,36.48-108.5,85.41-60.69-.61-118.64-.88-180.02-1.17-72.87-.33-150.71-.69-244.22-1.68-52.19-.54-79.21-55.91-78.93-110.31,.27-50.05,23.72-108.51,88.95-108.51h26.57v-56.91h-26.57c-99.61,0-145.44,85.6-145.86,165.12-.57,109.03,67.6,166.81,135.24,167.52,93.63,.99,171.59,1.34,244.55,1.68,61.84,.29,120.17,.56,181.37,1.18,13.35,46.79,56.39,81.18,107.4,81.18,61.63,0,111.77-50.14,111.77-111.77s-50.14-111.76-111.77-111.76Zm0,166.61c-30.25,0-54.85-24.61-54.85-54.86s24.6-54.84,54.85-54.84,54.86,24.6,54.86,54.84-24.61,54.86-54.86,54.86Z"/><path class="cls-1" d="M112.56,64.26c-30.24,0-54.85,24.61-54.85,54.86s24.6,54.84,54.85,54.84,54.86-24.6,54.86-54.84-24.61-54.86-54.86-54.86Z"/><path d="M622,86.97c-92.74,0-326.35,1.03-402.08,1.37C206.5,41.65,163.5,7.35,112.56,7.35,50.93,7.35,.79,57.49,.79,119.11s50.14,111.76,111.76,111.76c52.62,0,96.74-36.59,108.56-85.63,76.64-.34,308.63-1.36,400.88-1.36,78.98,0,120.3,62.04,120.3,123.33,0,29.42-9.88,56.17-27.81,75.3-20.52,21.89-51.48,33.46-89.55,33.46h-26.27v56.91h26.27c54.19,0,99.52-17.8,131.07-51.45,27.86-29.71,43.2-70.27,43.2-114.21,0-87.38-62.11-180.24-177.21-180.24ZM112.56,173.96c-30.24,0-54.85-24.6-54.85-54.84s24.6-54.86,54.85-54.86,54.86,24.61,54.86,54.86-24.61,54.84-54.86,54.84Z"/></svg>