<?xml version="1.0" encoding="UTF-8"?><svg id="Layer_1" xmlns="http://www.w3.org/2000/svg" viewBox="0 0 800 800"><path d="M327.54,368.07H41.93c-22.28,0-40.41-18.13-40.41-40.41V42.05C1.52,19.76,19.65,1.63,41.93,1.63H327.54c22.28,0,40.41,18.13,40.41,40.41V327.66c0,22.28-18.13,40.41-40.41,40.41ZM54.54,315.05H314.94V54.65H54.54V315.05Z"/><path d="M757.72,368.07H472.51c-22.4,0-40.61-18.22-40.61-40.61V42.25c0-22.4,18.22-40.61,40.61-40.61h285.2c22.4,0,40.62,18.22,40.62,40.61V327.46c0,22.4-18.22,40.61-40.62,40.61Zm-272.8-53.02h260.4V54.65H484.92V315.05Z"/><path d="M326.78,798.37H42.66c-22.7,0-41.16-18.46-41.16-41.16V473.09c0-22.7,18.46-41.16,41.16-41.16H326.78c22.7,0,41.16,18.46,41.16,41.16v284.12c0,22.7-18.46,41.16-41.16,41.16Zm-272.26-53.02H314.92V484.95H54.52v260.4Z"/><path d="M757.95,798.34H472.62c-22.36,0-40.55-18.19-40.55-40.55V472.46c0-22.36,18.19-40.55,40.55-40.55h285.33c22.36,0,40.55,18.19,40.55,40.55v285.33c0,22.36-18.19,40.55-40.55,40.55Zm-272.86-53.02h260.4V484.93H485.08v260.4Z"/></svg>