<?xml version="1.0" encoding="UTF-8" standalone="no"?>
<svg
   id="Layer_1"
   viewBox="0 0 800 800"
   version="1.1"
   sodipodi:docname="cabin.svg"
   xml:space="preserve"
   inkscape:version="1.3.2 (091e20e, 2023-11-25, custom)"
   xmlns:inkscape="http://www.inkscape.org/namespaces/inkscape"
   xmlns:sodipodi="http://sodipodi.sourceforge.net/DTD/sodipodi-0.dtd"
   xmlns="http://www.w3.org/2000/svg"
   xmlns:svg="http://www.w3.org/2000/svg"><defs
     id="defs1"><clipPath
       id="clip0"><rect
         x="750"
         y="346"
         width="100"
         height="160"
         id="rect1" /></clipPath></defs><sodipodi:namedview
     id="namedview1"
     pagecolor="#ffffff"
     bordercolor="#000000"
     borderopacity="0.25"
     inkscape:showpageshadow="2"
     inkscape:pageopacity="0.0"
     inkscape:pagecheckerboard="0"
     inkscape:deskcolor="#d1d1d1"
     inkscape:zoom="0.51839766"
     inkscape:cx="17.361189"
     inkscape:cy="363.62047"
     inkscape:window-width="2560"
     inkscape:window-height="1369"
     inkscape:window-x="-8"
     inkscape:window-y="-8"
     inkscape:window-maximized="1"
     inkscape:current-layer="Layer_1" /><g
     style="overflow:hidden"
     id="g1"
     transform="matrix(4.9463409,0,0,4.9463409,155.71232,6.2763287)"><g
       clip-path="url(#clip0)"
       transform="translate(-750,-346)"
       id="g3"><path
         d="M 395.935,503.704 H 307.67 c -2.679,-0.004 -4.849,-2.177 -4.851,-4.855 V 362.833 c 0.004,-2.677 2.174,-4.847 4.851,-4.852 h 88.265 c 2.679,0.005 4.848,2.175 4.851,4.852 v 136.016 c -0.003,2.678 -2.172,4.851 -4.851,4.855 z M 307.67,362.41 c -0.233,0 -0.422,0.189 -0.422,0.423 v 136.016 c -0.003,0.233 0.183,0.419 0.414,0.422 0.003,0 0.006,0 0.008,0 h 88.265 c 0.233,0.004 0.419,-0.181 0.423,-0.414 0,-0.004 0,-0.004 0,-0.008 V 362.833 c 0,-0.234 -0.19,-0.423 -0.423,-0.423 z"
         fill="#131e56"
         transform="matrix(1.00561,0,0,1,446.224,2.29619)"
         id="path1" /><path
         d="M 398.985,362.41 H 304.62 c -1.398,0.004 -2.535,-1.127 -2.538,-2.526 -0.002,-0.658 0.253,-1.291 0.709,-1.764 l 13.95,-14.416 h 70.123 l 13.95,14.416 c 0.972,1.006 0.94,2.61 -0.063,3.581 -0.474,0.456 -1.106,0.711 -1.766,0.709 z m -89.892,-4.429 h 85.42 l -9.525,-9.844 h -66.371 z"
         fill="#131e56"
         transform="matrix(1.00561,0,0,1,446.224,2.29619)"
         id="path2" /><path
         d="m 387.686,442.165 c 1.528,0 2.766,1.238 2.766,2.766 v 25.975 c 0,1.527 -1.238,2.765 -2.766,2.765 h -1.363 c -1.527,0 -2.765,-1.238 -2.765,-2.765 v -25.975 c 0,-1.528 1.238,-2.766 2.765,-2.766 z"
         fill="#131e56"
         transform="matrix(1.00561,0,0,1,446.224,2.29619)"
         id="path3" /></g></g></svg>
