<?xml version="1.0" encoding="UTF-8" standalone="no"?>
<svg
   id="Layer_1"
   viewBox="0 0 800 800"
   version="1.1"
   sodipodi:docname="cinemometer.svg"
   xml:space="preserve"
   inkscape:version="1.3.2 (091e20e, 2023-11-25, custom)"
   xmlns:inkscape="http://www.inkscape.org/namespaces/inkscape"
   xmlns:sodipodi="http://sodipodi.sourceforge.net/DTD/sodipodi-0.dtd"
   xmlns="http://www.w3.org/2000/svg"
   xmlns:svg="http://www.w3.org/2000/svg"><defs
     id="defs1"><clipPath
       id="clip0"><rect
         x="750"
         y="346"
         width="100"
         height="160"
         id="rect1" /></clipPath></defs><sodipodi:namedview
     id="namedview1"
     pagecolor="#ffffff"
     bordercolor="#000000"
     borderopacity="0.25"
     inkscape:showpageshadow="2"
     inkscape:pageopacity="0.0"
     inkscape:pagecheckerboard="0"
     inkscape:deskcolor="#d1d1d1"
     inkscape:zoom="0.51839766"
     inkscape:cx="17.361189"
     inkscape:cy="363.62047"
     inkscape:window-width="2560"
     inkscape:window-height="1369"
     inkscape:window-x="-8"
     inkscape:window-y="-8"
     inkscape:window-maximized="1"
     inkscape:current-layer="Layer_1" /><g
     style="overflow:hidden"
     id="g1"
     transform="matrix(7.1735871,0,0,7.1735871,-190.43607,53.65034)"><g
       transform="translate(-953,-371)"
       id="g3"><path
         d="M 647.751,713.743 H 539.104 v -68.606 l 26.96,-0.06 v -10.608 h 54.687 v 10.608 l 27.007,0.074 z M 544.94,707.914 h 96.982 v -56.961 l -27,-0.073 v -10.582 h -43.029 v 10.582 l -26.953,0.073 z"
         fill="#f98e00"
         transform="matrix(1.00438,0,0,1,439.618,-252.944)"
         id="path1" /><path
         d="m 594.414,701.109 c -13.908,0 -25.182,-11.277 -25.182,-25.182 0,-13.907 11.274,-25.181 25.182,-25.181 13.907,0 25.181,11.274 25.181,25.181 -0.015,13.905 -11.28,25.168 -25.181,25.182 z m 0,-44.527 c -10.689,0 -19.353,8.664 -19.353,19.352 0,10.689 8.664,19.352 19.353,19.352 10.688,0 19.352,-8.663 19.352,-19.352 0,0 0,-0.007 0,-0.007 -0.022,-10.677 -8.675,-19.327 -19.352,-19.345 z"
         fill="#f98e00"
         transform="matrix(1.00438,0,0,1,439.618,-252.944)"
         id="path2" /><path
         d="m 592.268,689.805 v -5.829 c 5.397,-0.007 9.77,-4.385 9.773,-9.78 h 5.836 c -0.012,8.617 -6.993,15.596 -15.609,15.609 z"
         fill="#f98e00"
         transform="matrix(1.00438,0,0,1,439.618,-252.944)"
         id="path3" /></g></g></svg>
