<?xml version="1.0" encoding="UTF-8" standalone="no"?>
<svg
   id="Layer_1"
   viewBox="0 0 800 800"
   version="1.1"
   sodipodi:docname="lct.svg"
   xml:space="preserve"
   inkscape:version="1.3.2 (091e20e, 2023-11-25, custom)"
   xmlns:inkscape="http://www.inkscape.org/namespaces/inkscape"
   xmlns:sodipodi="http://sodipodi.sourceforge.net/DTD/sodipodi-0.dtd"
   xmlns="http://www.w3.org/2000/svg"
   xmlns:svg="http://www.w3.org/2000/svg"><defs
     id="defs1"><clipPath
       id="clip0"><rect
         x="750"
         y="346"
         width="100"
         height="160"
         id="rect1" /></clipPath></defs><sodipodi:namedview
     id="namedview1"
     pagecolor="#ffffff"
     bordercolor="#000000"
     borderopacity="0.25"
     inkscape:showpageshadow="2"
     inkscape:pageopacity="0.0"
     inkscape:pagecheckerboard="0"
     inkscape:deskcolor="#d1d1d1"
     inkscape:zoom="0.51839766"
     inkscape:cx="17.361189"
     inkscape:cy="363.62047"
     inkscape:window-width="2560"
     inkscape:window-height="1369"
     inkscape:window-x="-8"
     inkscape:window-y="-8"
     inkscape:window-maximized="1"
     inkscape:current-layer="Layer_1" /><g
     id="Radar"
     transform="matrix(1.9430925,0,0,1.9322511,-1565.3727,-1740.1321)"><g
       id="Cinemometer"
       transform="translate(120.46553,35.592088)"><path
         class="cls-11"
         d="M 969,1067.72 H 806.47 V 965.09 L 846.8,965 v -15.87 h 81.81 V 965 l 40.4,0.11 z M 815.2,1059 h 145.08 v -85.21 l -40.39,-0.11 v -15.83 h -64.37 v 15.83 l -40.32,0.11 z"
         id="camera"
         style="fill:#f98e00" /><path
         class="cls-11"
         d="m 889.21,1048.82 a 37.67,37.67 0 1 1 37.67,-37.67 37.71,37.71 0 0 1 -37.67,37.67 z m 0,-66.61 a 28.95,28.95 0 1 0 28.95,28.94 29,29 0 0 0 -28.95,-28.94 z"
         id="lens"
         style="fill:#f98e00" /><path
         class="cls-11"
         d="m 886,1031.91 v -8.72 a 14.64,14.64 0 0 0 14.62,-14.63 h 8.73 A 23.38,23.38 0 0 1 886,1031.91 Z"
         id="reflection"
         style="fill:#f98e00" /></g><g
       id="Cabin"
       data-name="Cabin"
       transform="translate(120.46553,35.592088)"
       style="display:inline"><path
         class="cls-10"
         d="M 1002.21,1275 H 778.79 a 12.3,12.3 0 0 1 -12.28,-12.29 V 918.42 a 12.3,12.3 0 0 1 12.28,-12.28 h 223.42 a 12.3,12.3 0 0 1 12.28,12.28 v 344.29 A 12.3,12.3 0 0 1 1002.21,1275 Z M 778.79,917.35 a 1.07,1.07 0 0 0 -1.07,1.07 v 344.29 a 1.06,1.06 0 0 0 1.07,1.07 h 223.42 a 1.06,1.06 0 0 0 1.07,-1.07 V 918.42 a 1.07,1.07 0 0 0 -1.07,-1.07 z"
         id="door"
         style="fill:#131e56" /><path
         class="cls-10"
         d="M 1009.93,917.35 H 771.07 a 6.41,6.41 0 0 1 -4.63,-10.86 L 801.75,870 h 177.5 l 35.31,36.49 a 6.41,6.41 0 0 1 -4.63,10.86 z M 782.39,906.14 H 998.61 L 974.5,881.22 h -168 z"
         id="head"
         style="fill:#131e56" /><rect
         class="cls-10"
         x="970.88"
         y="1119.23"
         width="17.450001"
         height="79.75"
         rx="7"
         id="handle"
         style="fill:#131e56" /></g></g></svg>
